<svg width="3126" height="2268" xmlns="http://www.w3.org/2000/svg" xmlns:xlink="http://www.w3.org/1999/xlink" xml:space="preserve" overflow="hidden"><defs><clipPath id="clip0"><rect x="0" y="0" width="3126" height="2268"/></clipPath><clipPath id="clip1"><rect x="0" y="0" width="3125" height="2268"/></clipPath><clipPath id="clip2"><rect x="0" y="0" width="3125" height="2268"/></clipPath><clipPath id="clip3"><rect x="242" y="50" width="2836" height="2017"/></clipPath><clipPath id="clip4"><rect x="0" y="0" width="3125" height="2268"/></clipPath><clipPath id="clip5"><rect x="0" y="0" width="3125" height="2268"/></clipPath><clipPath id="clip6"><rect x="242" y="50" width="2836" height="2017"/></clipPath><clipPath id="clip7"><rect x="0" y="0" width="3125" height="2268"/></clipPath><clipPath id="clip8"><rect x="0" y="0" width="3125" height="2268"/></clipPath><clipPath id="clip9"><rect x="0" y="0" width="3125" height="2268"/></clipPath><clipPath id="clip10"><rect x="0" y="0" width="3125" height="2268"/></clipPath><clipPath id="clip11"><rect x="0" y="0" width="3125" height="2268"/></clipPath><clipPath id="clip12"><rect x="0" y="0" width="3125" height="2268"/></clipPath><clipPath id="clip13"><rect x="0" y="0" width="3125" height="2268"/></clipPath><clipPath id="clip14"><rect x="0" y="0" width="3125" height="2268"/></clipPath><clipPath id="clip15"><rect x="0" y="0" width="3125" height="2268"/></clipPath><clipPath id="clip16"><rect x="0" y="0" width="3125" height="2268"/></clipPath><clipPath id="clip17"><rect x="0" y="0" width="3125" height="2268"/></clipPath><clipPath id="clip18"><rect x="0" y="0" width="3125" height="2268"/></clipPath><clipPath id="clip19"><rect x="0" y="0" width="3125" height="2268"/></clipPath><clipPath id="clip20"><rect x="0" y="0" width="3125" height="2268"/></clipPath><clipPath id="clip21"><rect x="0" y="0" width="3125" height="2268"/></clipPath><clipPath id="clip22"><rect x="0" y="0" width="3125" height="2268"/></clipPath><clipPath id="clip23"><rect x="0" y="0" width="3125" height="2268"/></clipPath><clipPath id="clip24"><rect x="0" y="0" width="3125" height="2268"/></clipPath><clipPath id="clip25"><rect x="0" y="0" width="3125" height="2268"/></clipPath><clipPath id="clip26"><rect x="0" y="0" width="3125" height="2268"/></clipPath></defs><g clip-path="url(#clip0)"><g clip-path="url(#clip1)"><path d="M242.5 1728.56 3075.5 1728.56M242.5 1393.55 3075.5 1393.55M242.5 1057.53 3075.5 1057.53M242.5 721.524 3075.5 721.524M242.5 386.513 3075.5 386.513M242.5 50.5 3075.5 50.5" stroke="#D9D9D9" stroke-width="3.4375" stroke-linejoin="round" stroke-miterlimit="10" fill="none"/></g><g clip-path="url(#clip2)"><path d="M242.5 50.5 242.5 2064.5M519.517 50.5 519.517 2064.5M800.526 50.5 800.526 2064.5M1079.54 50.5 1079.54 2064.5M1360.54 50.5 1360.54 2064.5M1637.55 50.5 1637.55 2064.5M1919.56 50.5 1919.56 2064.5M2196.57 50.5 2196.57 2064.5M2478.58 50.5 2478.58 2064.5M2755.59 50.5 2755.59 2064.5M3036.5 50.5 3036.5 2064.5" stroke="#D9D9D9" stroke-width="3.4375" stroke-linejoin="round" stroke-miterlimit="10" fill="none"/></g><g clip-path="url(#clip3)"><path d="M243 2004.07 258.008 2002.07 266.009 2000.07 274.009 1998.07 281.009 1996.07 289.009 1993.07 297.01 1991.07 304.01 1966.06 312.01 1964.06 320.01 1961.06 327.011 1959.06 335.011 1957.06 343.011 1954.06 350.011 1930.06 358.012 1927.06 366.012 1925.06 373.012 1923.06 381.013 1920.06 388.013 1918.06 396.013 1915.06 398.013 1893.06 404.013 1891.06 411.013 1888.06 419.014 1886.06 427.014 1884.06 434.014 1881.06 442.014 1879.06 444.015 1857.06 450.015 1854.06 457.015 1852.06 465.015 1850.06 473.016 1847.06 480.016 1845.06 488.016 1842.06 491.016 1820.06 496.016 1818.06 503.017 1815.06 511.017 1813.06 519.017 1811.06 526.017 1808.06 534.018 1806.06 537.018 1784.06 541.018 1781.06 549.018 1779.06 557.018 1777.06 564.018 1774.06 572.019 1772.06 580.019 1769.06 583.019 1747.06 587.019 1745.06 595.02 1742.06 603.02 1740.06 610.02 1738.06 618.02 1735.06 626.021 1733.06 630.021 1711.06 633.021 1708.06 641.021 1706.06 649.021 1703.06 656.021 1701.06 664.022 1699.06 672.022 1696.06 676.022 1674.05 679.022 1672.05 687.023 1669.05 695.023 1667.05 702.023 1665.05 710.023 1662.05 717.024 1660.05 724.024 1638.05 725.024 1635.05 733.024 1633.05 740.024 1630.05 748.025 1628.05 756.025 1626.05 763.025 1623.05 770.025 1601.05 771.025 1599.05 779.026 1596.05 786.026 1594.05 794.026 1592.05 802.026 1589.05 809.026 1587.05 815.027 1565.05 817.027 1562.05 825.027 1559.05 832.027 1556.05 840.028 1553.05 848.028 1550.05 855.028 1547.05 863.028 1522.05 871.029 1519.05 878.029 1516.05 886.029 1513.05 893.029 1509.05 901.03 1506.05 909.03 1481.05 916.03 1478.05 924.03 1475.05 932.031 1472.05 939.031 1469.05 947.031 1465.05 955.031 1462.05 956.031 1440.05 962.032 1437.05 970.032 1434.05 978.032 1431.05 985.032 1428.05 993.033 1425.05 1001.03 1421.05 1002.03 1399.05 1008.03 1396.05 1016.03 1393.05 1024.03 1390.05 1031.03 1387.05 1039.03 1384.05 1047.03 1381.05 1050.03 1359.04 1054.03 1355.04 1062.03 1352.04 1069.04 1349.04 1077.04 1346.04 1085.04 1343.04 1092.04 1340.04 1095.04 1318.04 1100.04 1315.04 1108.04 1311.04 1115.04 1308.04 1123.04 1305.04 1131.04 1302.04 1138.04 1299.04 1141.04 1277.04 1146.04 1274.04 1154.04 1271.04 1161.04 1267.04 1169.04 1264.04 1177.04 1261.04 1184.04 1258.04 1189.04 1236.04 1192.04 1233.04 1200.04 1230.04 1207.04 1227.04 1215.04 1223.04 1223.04 1220.04 1230.04 1217.04 1235.04 1195.04 1238.04 1192.04 1245.04 1189.04 1253.04 1186.04 1261.04 1183.04 1268.04 1179.04 1276.04 1176.04 1282.04 1154.04 1284.04 1151.04 1291.04 1148.04 1299.04 1145.04 1307.04 1142.04 1314.04 1139.04 1322.04 1135.04 1328.04 1113.04 1330.04 1110.04 1337.04 1107.04 1345.04 1104.04 1353.04 1101.04 1360.04 1098.04 1368.04 1095.04 1376.05 1091.04 1383.05 1088.04 1391.05 1084.04 1398.05 1081.04 1406.05 1077.04 1414.05 1073.04 1421.05 1069.04 1429.05 1065.03 1437.05 1061.03 1444.05 1057.03 1452.05 1054.03 1460.05 1050.03 1467.05 1046.03 1475.05 1042.03 1483.05 1038.03 1490.05 1034.03 1498.05 1030.03 1506.05 1026.03 1513.05 1023.03 1521.05 1019.03 1529.05 1015.03 1536.05 1011.03 1544.05 1007.03 1552.05 1003.03 1559.05 999.033 1567.05 996.033 1574.05 992.033 1582.05 988.032 1590.05 984.032 1597.05 980.032 1605.05 976.032 1613.05 972.032 1620.05 969.032 1628.05 965.032 1636.05 961.031 1643.05 957.031 1651.05 953.031 1659.05 949.031 1666.05 945.031 1674.05 941.031 1682.06 938.031 1689.06 934.031 1697.06 930.031 1705.06 926.03 1712.06 922.03 1720.06 918.03 1728.06 914.03 1735.06 911.03 1743.06 907.03 1750.06 903.03 1758.06 899.03 1766.06 895.029 1773.06 891.029 1781.06 887.029 1789.06 884.029 1796.06 880.029 1804.06 876.029 1812.06 872.029 1819.06 868.028 1827.06 864.028 1835.06 860.028 1842.06 857.028 1850.06 853.028 1858.06 849.028 1865.06 845.028 1873.06 841.028 1881.06 837.027 1888.06 833.027 1896.06 829.027 1904.06 826.027 1911.06 822.027 1919.06 818.027 1926.06 814.027 1934.06 810.027 1942.06 806.026 1949.06 801.026 1957.06 797.026 1965.06 792.026 1972.06 788.026 1980.06 783.026 1988.07 779.026 1995.07 774.025 2003.07 770.025 2011.07 765.025 2018.07 760.025 2026.07 756.025 2034.07 751.025 2041.07 747.025 2049.07 742.024 2057.07 737.024 2064.07 733.024 2072.07 728.024 2079.07 724.024 2087.07 719.024 2095.07 714.023 2102.07 710.023 2110.07 705.023 2118.07 701.023 2125.07 696.023 2133.07 692.023 2141.07 687.023 2148.07 682.022 2156.07 678.022 2164.07 673.022 2171.07 669.022 2179.07 664.022 2187.07 659.022 2194.07 655.021 2202.07 650.021 2210.07 646.021 2217.07 641.021 2225.07 637.021 2233.07 632.021 2240.07 627.021 2248.07 623.02 2255.07 618.02 2263.07 614.02 2271.07 609.02 2278.07 604.02 2286.07 600.02 2294.08 595.02 2301.08 591.019 2309.08 586.019 2317.08 581.019 2324.08 577.019 2332.08 572.019 2340.08 568.019 2347.08 563.018 2355.08 559.018 2363.08 554.018 2370.08 549.018 2378.08 545.018 2386.08 540.018 2393.08 536.018 2401.08 531.017 2409.08 526.017 2416.08 522.017 2424.08 517.017 2431.08 513.017 2439.08 508.017 2447.08 504.017 2454.08 499.016 2462.08 494.016 2470.08 490.016 2477.08 485.016 2485.08 481.016 2493.08 476.016 2500.08 471.015 2508.08 466.015 2516.08 461.015 2523.08 455.015 2531.08 450.015 2539.08 445.015 2546.08 439.014 2554.08 434.014 2562.08 429.014 2569.08 424.014 2577.08 418.014 2585.08 413.014 2592.08 408.013 2600.09 402.013 2607.09 397.013 2615.09 392.013 2623.09 386.013 2630.09 381.013 2638.09 376.012 2646.09 370.012 2653.09 365.012 2661.09 360.012 2669.09 354.012 2676.09 349.011 2684.09 344.011 2692.09 339.011 2699.09 333.011 2707.09 328.011 2715.09 323.011 2722.09 317.01 2730.09 312.01 2738.09 307.01 2745.09 301.01 2753.09 296.01 2761.09 291.01 2768.09 285.009 2776.09 280.009 2783.09 275.009 2791.09 270.009 2799.09 264.009 2806.09 259.008 2814.09 254.008 2822.09 248.008 2829.09 243.008 2837.09 238.008 2845.09 232.008 2852.09 227.007 2860.09 222.007 2868.09 216.007 2875.09 211.007 2883.09 206.007 2891.09 200.007 2898.09 195.006 2906.1 190.006 2914.1 185.006 2921.1 179.006 2929.1 174.006 2936.1 169.006 2944.1 163.005 2952.1 158.005 2959.1 153.005 2967.1 147.005 2975.1 142.005 2982.1 137.005 2990.1 131.004 2998.1 126.004 3005.1 121.004 3013.1 116.004 3021.1 110.004 3028.1 105.003 3036.1 100.003 3044.1 94.0031 3051.1 92.003 3059.1 91.003 3067.1 89.0029 3074 87 3074 2064 3067.1 2064 3059.1 2064 3051.1 2064 3044.1 2064 3036.1 2064 3028.1 2064 3021.1 2064 3013.1 2064 3005.1 2064 2998.1 2064 2990.1 2064 2982.1 2064 2975.1 2064 2967.1 2064 2959.1 2064 2952.1 2064 2944.1 2064 2936.1 2064 2929.1 2064 2921.1 2064 2914.1 2064 2906.1 2064 2898.09 2064 2891.09 2064 2883.09 2064 2875.09 2064 2868.09 2064 2860.09 2064 2852.09 2064 2845.09 2064 2837.09 2064 2829.09 2064 2822.09 2064 2814.09 2064 2806.09 2064 2799.09 2064 2791.09 2064 2783.09 2064 2776.09 2064 2768.09 2064 2761.09 2064 2753.09 2064 2745.09 2064 2738.09 2064 2730.09 2064 2722.09 2064 2715.09 2064 2707.09 2064 2699.09 2064 2692.09 2064 2684.09 2064 2676.09 2064 2669.09 2064 2661.09 2064 2653.09 2064 2646.09 2064 2638.09 2064 2630.09 2064 2623.09 2064 2615.09 2064 2607.09 2064 2600.09 2064 2592.08 2064 2585.08 2064 2577.08 2064 2569.08 2064 2562.08 2064 2554.08 2064 2546.08 2064 2539.08 2064 2531.08 2064 2523.08 2064 2516.08 2064 2508.08 2064 2500.08 2064 2493.08 2064 2485.08 2064 2477.08 2064 2470.08 2064 2462.08 2064 2454.08 2064 2447.08 2064 2439.08 2064 2431.08 2064 2424.08 2064 2416.08 2064 2409.08 2064 2401.08 2064 2393.08 2064 2386.08 2064 2378.08 2064 2370.08 2064 2363.08 2064 2355.08 2064 2347.08 2064 2340.08 2064 2332.08 2064 2324.08 2064 2317.08 2064 2309.08 2064 2301.08 2064 2294.08 2064 2286.07 2064 2278.07 2064 2271.07 2064 2263.07 2064 2255.07 2064 2248.07 2064 2240.07 2064 2233.07 2064 2225.07 2064 2217.07 2064 2210.07 2064 2202.07 2064 2194.07 2064 2187.07 2064 2179.07 2064 2171.07 2064 2164.07 2064 2156.07 2064 2148.07 2064 2141.07 2064 2133.07 2064 2125.07 2064 2118.07 2064 2110.07 2064 2102.07 2064 2095.07 2064 2087.07 2064 2079.07 2064 2072.07 2064 2064.07 2064 2057.07 2064 2049.07 2064 2041.07 2064 2034.07 2064 2026.07 2064 2018.07 2064 2011.07 2064 2003.07 2064 1995.07 2064 1988.07 2064 1980.06 2064 1972.06 2064 1965.06 2064 1957.06 2064 1949.06 2064 1942.06 2064 1934.06 2064 1926.06 2064 1919.06 2064 1911.06 2064 1904.06 2064 1896.06 2064 1888.06 2064 1881.06 2064 1873.06 2064 1865.06 2064 1858.06 2064 1850.06 2064 1842.06 2064 1835.06 2064 1827.06 2064 1819.06 2064 1812.06 2064 1804.06 2064 1796.06 2064 1789.06 2064 1781.06 2064 1773.06 2064 1766.06 2064 1758.06 2064 1750.06 2064 1743.06 2064 1735.06 2064 1728.06 2064 1720.06 2064 1712.06 2064 1705.06 2064 1697.06 2064 1689.06 2064 1682.06 2064 1674.05 2064 1666.05 2064 1659.05 2064 1651.05 2064 1643.05 2064 1636.05 2064 1628.05 2064 1620.05 2064 1613.05 2064 1605.05 2064 1597.05 2064 1590.05 2064 1582.05 2064 1574.05 2064 1567.05 2064 1559.05 2064 1552.05 2064 1544.05 2064 1536.05 2064 1529.05 2064 1521.05 2064 1513.05 2064 1506.05 2064 1498.05 2064 1490.05 2064 1483.05 2064 1475.05 2064 1467.05 2064 1460.05 2064 1452.05 2064 1444.05 2064 1437.05 2064 1429.05 2064 1421.05 2064 1414.05 2064 1406.05 2064 1398.05 2064 1391.05 2064 1383.05 2064 1376.05 2064 1368.04 2064 1360.04 2064 1353.04 2064 1345.04 2064 1337.04 2064 1330.04 2064 1328.04 2064 1322.04 2064 1314.04 2064 1307.04 2064 1299.04 2064 1291.04 2064 1284.04 2064 1282.04 2064 1276.04 2064 1268.04 2064 1261.04 2064 1253.04 2064 1245.04 2064 1238.04 2064 1235.04 2064 1230.04 2064 1223.04 2064 1215.04 2064 1207.04 2064 1200.04 2064 1192.04 2064 1189.04 2064 1184.04 2064 1177.04 2064 1169.04 2064 1161.04 2064 1154.04 2064 1146.04 2064 1141.04 2064 1138.04 2064 1131.04 2064 1123.04 2064 1115.04 2064 1108.04 2064 1100.04 2064 1095.04 2064 1092.04 2064 1085.04 2064 1077.04 2064 1069.04 2064 1062.03 2064 1054.03 2064 1050.03 2064 1047.03 2064 1039.03 2064 1031.03 2064 1024.03 2064 1016.03 2064 1008.03 2064 1002.03 2064 1001.03 2064 993.033 2064 985.032 2064 978.032 2064 970.032 2064 962.032 2064 956.031 2064 955.031 2064 947.031 2064 939.031 2064 932.031 2064 924.03 2064 916.03 2064 909.03 2064 901.03 2064 893.029 2064 886.029 2064 878.029 2064 871.029 2064 863.028 2064 855.028 2064 848.028 2064 840.028 2064 832.027 2064 825.027 2064 817.027 2064 815.027 2064 809.026 2064 802.026 2064 794.026 2064 786.026 2064 779.026 2064 771.025 2064 770.025 2064 763.025 2064 756.025 2064 748.025 2064 740.024 2064 733.024 2064 725.024 2064 724.024 2064 717.024 2064 710.023 2064 702.023 2064 695.023 2064 687.023 2064 679.022 2064 676.022 2064 672.022 2064 664.022 2064 656.021 2064 649.021 2064 641.021 2064 633.021 2064 630.021 2064 626.021 2064 618.02 2064 610.02 2064 603.02 2064 595.02 2064 587.019 2064 583.019 2064 580.019 2064 572.019 2064 564.018 2064 557.018 2064 549.018 2064 541.018 2064 537.018 2064 534.018 2064 526.017 2064 519.017 2064 511.017 2064 503.017 2064 496.016 2064 491.016 2064 488.016 2064 480.016 2064 473.016 2064 465.015 2064 457.015 2064 450.015 2064 444.015 2064 442.014 2064 434.014 2064 427.014 2064 419.014 2064 411.013 2064 404.013 2064 398.013 2064 396.013 2064 388.013 2064 381.013 2064 373.012 2064 366.012 2064 358.012 2064 350.011 2064 343.011 2064 335.011 2064 327.011 2064 320.01 2064 312.01 2064 304.01 2064 297.01 2064 289.009 2064 281.009 2064 274.009 2064 266.009 2064 258.008 2064 243 2064Z" fill="#97B9E0" fill-opacity="0.701961"/></g><g clip-path="url(#clip4)"><path d="M242.5 2064.5 3075.5 2064.5" stroke="#D9D9D9" stroke-width="3.4375" stroke-linejoin="round" stroke-miterlimit="10" fill="none" fill-rule="evenodd"/></g><g clip-path="url(#clip5)"><path d="M242.5 2064.5 242.5 2077.5M519.517 2064.5 519.517 2077.5M800.526 2064.5 800.526 2077.5M1079.54 2064.5 1079.54 2077.5M1360.54 2064.5 1360.54 2077.5M1637.55 2064.5 1637.55 2077.5M1919.56 2064.5 1919.56 2077.5M2196.57 2064.5 2196.57 2077.5M2478.58 2064.5 2478.58 2077.5M2755.59 2064.5 2755.59 2077.5M3036.5 2064.5 3036.5 2077.5" stroke="#D9D9D9" stroke-width="3.4375" stroke-linejoin="round" stroke-miterlimit="10" fill="none"/></g><g clip-path="url(#clip6)"><path d="M243.5 2003.5C248.601 2002.86 254.977 2002.24 258.803 2001.57 262.628 2000.9 263.903 2000.17 266.454 1999.48 269.004 1998.78 271.555 1998.08 274.105 1997.39 276.655 1996.69 279.206 1996.04 281.757 1995.29 284.307 1994.54 286.858 1993.68 289.408 1992.88 291.394 1992.25 295.073 1993.95 297.06 1990.47 299.61 1985.99 302.16 1970.5 304.711 1966.03 306.697 1962.54 310.376 1964.24 312.362 1963.62 314.912 1962.81 317.463 1962.01 320.014 1961.2 322.564 1960.4 325.114 1959.59 327.665 1958.79 330.215 1957.98 332.766 1957.18 335.316 1956.38 337.302 1955.75 340.981 1957.45 342.968 1953.96 345.518 1949.49 348.068 1934 350.619 1929.53 352.605 1926.04 356.284 1927.74 358.27 1927.11 360.82 1926.31 363.371 1925.5 365.922 1924.7 368.472 1923.89 371.022 1923.09 373.573 1922.28 376.123 1921.48 378.674 1920.67 381.224 1919.87 383.775 1919.07 386.325 1918.26 388.876 1917.46 391.227 1916.72 395.116 1918.8 396.527 1915.04 398.057 1910.97 396.782 1897.09 398.057 1893.02 399.04 1889.88 402.409 1891.23 404.178 1890.61 406.473 1889.8 409.279 1889 411.83 1888.19 414.38 1887.39 416.93 1886.58 419.481 1885.78 422.031 1884.98 424.582 1884.17 427.132 1883.37 429.683 1882.56 432.233 1881.76 434.784 1880.95 437.135 1880.21 441.024 1882.29 442.435 1878.54 443.965 1874.47 442.69 1860.59 443.965 1856.52 444.948 1853.38 448.317 1854.72 450.086 1854.1 452.381 1853.3 455.187 1852.49 457.738 1851.69 460.288 1850.88 462.838 1850.08 465.389 1849.27 467.939 1848.47 470.49 1847.67 473.04 1846.86 475.591 1846.06 478.141 1845.25 480.692 1844.45 482.992 1843.72 486.733 1845.71 488.343 1842.03 490.128 1837.96 490.129 1824.08 491.404 1820.01 492.178 1817.54 494.754 1818.09 495.994 1817.6 498.035 1816.79 501.096 1815.99 503.646 1815.18 506.196 1814.38 508.747 1813.57 511.297 1812.77 513.848 1811.97 516.398 1811.16 518.949 1810.36 521.499 1809.55 524.049 1808.75 526.6 1807.94 528.9 1807.22 532.641 1809.2 534.251 1805.53 536.037 1801.46 536.037 1787.58 537.312 1783.51 538.087 1781.03 540.663 1781.58 541.903 1781.09 543.943 1780.29 547.004 1779.48 549.554 1778.68 552.104 1777.87 554.655 1777.07 557.205 1776.27 559.756 1775.46 562.306 1774.66 564.857 1773.85 567.407 1773.05 569.958 1772.24 572.508 1771.44 574.808 1770.71 578.549 1772.7 580.159 1769.02 581.945 1764.95 581.945 1751.07 583.22 1747 583.995 1744.53 586.571 1745.08 587.811 1744.59 589.851 1743.78 592.912 1742.98 595.462 1742.17 598.012 1741.37 600.563 1740.57 603.113 1739.76 605.664 1738.96 608.214 1738.15 610.765 1737.35 613.315 1736.54 615.866 1735.74 618.416 1734.93 620.662 1734.23 624.271 1736.11 626.068 1732.52 628.108 1728.45 629.383 1714.57 630.658 1710.5 631.24 1708.64 632.904 1708.45 633.719 1708.08 635.504 1707.28 638.82 1706.47 641.37 1705.67 643.92 1704.87 646.471 1704.06 649.021 1703.26 651.572 1702.45 654.122 1701.65 656.673 1700.84 659.223 1700.04 661.774 1699.23 664.324 1698.43 666.57 1697.72 670.179 1699.6 671.976 1696.02 674.016 1691.94 675.291 1678.07 676.566 1673.99 677.148 1672.13 678.812 1671.95 679.627 1671.58 681.412 1670.77 684.728 1669.97 687.278 1669.16 689.828 1668.36 692.379 1667.56 694.93 1666.75 697.48 1665.95 700.03 1665.14 702.581 1664.34 705.131 1663.53 707.682 1662.73 710.233 1661.92 712.42 1661.23 715.914 1663 717.884 1659.51 720.179 1655.44 722.73 1641.56 724.005 1637.49 724.432 1636.12 725.023 1635.34 725.535 1635.07 727.065 1634.27 730.636 1633.46 733.187 1632.66 735.737 1631.86 738.287 1631.05 740.838 1630.25 743.388 1629.44 745.939 1628.64 748.489 1627.83 751.039 1627.03 753.59 1626.22 756.141 1625.42 758.329 1624.73 761.822 1626.5 763.792 1623.01 766.087 1618.93 768.638 1605.06 769.913 1600.98 770.34 1599.62 770.931 1598.84 771.443 1598.57 772.973 1597.76 776.544 1596.96 779.095 1596.16 781.645 1595.35 784.195 1594.55 786.746 1593.74 789.296 1592.94 791.847 1592.13 794.397 1591.33 796.948 1590.52 799.498 1589.72 802.049 1588.91 804.237 1588.22 807.73 1590 809.7 1586.5 811.995 1582.43 814.546 1568.6 815.821 1564.48 816.284 1562.98 816.796 1562.08 817.351 1561.74 818.881 1560.82 822.452 1559.87 825.003 1558.93 827.553 1557.99 830.103 1557.05 832.654 1556.11 835.204 1555.17 837.755 1554.29 840.305 1553.3 842.856 1552.3 845.406 1551.2 847.957 1550.16 849.923 1549.35 853.641 1550.66 855.608 1547.02 858.158 1542.3 860.709 1526.58 863.259 1521.86 865.226 1518.22 868.944 1519.53 870.911 1518.72 873.461 1517.68 876.011 1516.63 878.562 1515.58 881.112 1514.54 883.663 1513.49 886.213 1512.45 888.764 1511.4 891.314 1510.35 893.865 1509.31 895.831 1508.5 899.549 1509.81 901.516 1506.17 904.066 1501.46 906.617 1485.73 909.167 1481.01 911.134 1477.37 914.852 1478.68 916.819 1477.87 919.369 1476.83 921.92 1475.78 924.47 1474.74 927.021 1473.69 929.571 1472.64 932.122 1471.6 934.672 1470.55 937.223 1469.51 939.773 1468.46 942.323 1467.41 944.874 1466.37 947.424 1465.32 949.786 1464.35 953.658 1466.07 955.076 1462.19 956.606 1457.99 955.331 1444.36 956.606 1440.16 957.606 1436.87 960.926 1437.84 962.727 1437.02 965.023 1435.98 967.828 1434.93 970.378 1433.89 972.929 1432.84 975.479 1431.8 978.03 1430.75 980.58 1429.7 983.131 1428.66 985.681 1427.61 988.231 1426.57 990.782 1425.52 993.332 1424.47 995.694 1423.51 999.566 1425.22 1000.98 1421.34 1002.51 1417.14 1001.24 1403.51 1002.51 1399.31 1003.51 1396.02 1006.83 1397 1008.64 1396.18 1010.93 1395.13 1013.74 1394.08 1016.29 1393.04 1018.84 1391.99 1021.39 1390.95 1023.94 1389.9 1026.49 1388.85 1029.04 1387.81 1031.59 1386.76 1034.14 1385.72 1036.69 1384.67 1039.24 1383.63 1041.55 1382.68 1045.27 1384.29 1046.89 1380.49 1048.68 1376.29 1048.68 1362.66 1049.95 1358.46 1050.76 1355.81 1053.25 1355.99 1054.54 1355.33 1056.58 1354.28 1059.64 1353.24 1062.19 1352.19 1064.74 1351.14 1067.3 1350.1 1069.85 1349.05 1072.4 1348.01 1074.95 1346.96 1077.5 1345.91 1080.05 1344.87 1082.6 1343.82 1085.15 1342.78 1087.46 1341.83 1091.18 1343.44 1092.8 1339.64 1094.58 1335.45 1094.59 1321.81 1095.86 1317.62 1096.67 1314.96 1099.16 1315.14 1100.45 1314.48 1102.49 1313.43 1105.55 1312.39 1108.1 1311.34 1110.65 1310.3 1113.2 1309.25 1115.75 1308.2 1118.3 1307.16 1120.85 1306.11 1123.41 1305.07 1125.96 1304.02 1128.51 1302.97 1131.06 1301.93 1133.37 1300.98 1137.09 1302.59 1138.71 1298.79 1140.49 1294.6 1140.49 1280.96 1141.77 1276.77 1142.58 1274.11 1145.07 1274.29 1146.36 1273.63 1148.4 1272.58 1151.46 1271.54 1154.01 1270.49 1156.56 1269.45 1159.11 1268.4 1161.66 1267.35 1164.21 1266.31 1166.76 1265.26 1169.31 1264.22 1171.86 1263.17 1174.41 1262.12 1176.96 1261.08 1179.23 1260.15 1182.81 1261.66 1184.62 1257.94 1186.66 1253.75 1187.93 1240.11 1189.21 1235.92 1189.84 1233.82 1191.37 1233.3 1192.27 1232.78 1194.05 1231.74 1197.37 1230.69 1199.92 1229.64 1202.47 1228.6 1205.02 1227.55 1207.57 1226.51 1210.12 1225.46 1212.67 1224.41 1215.22 1223.37 1217.77 1222.32 1220.32 1221.28 1222.87 1220.23 1225.13 1219.3 1228.72 1220.81 1230.52 1217.09 1232.56 1212.9 1233.84 1199.26 1235.12 1195.07 1235.75 1192.97 1237.28 1192.46 1238.18 1191.93 1239.96 1190.89 1243.28 1189.84 1245.83 1188.8 1248.38 1187.75 1250.93 1186.7 1253.48 1185.66 1256.03 1184.61 1258.58 1183.57 1261.13 1182.52 1263.68 1181.47 1266.23 1180.43 1268.78 1179.38 1270.99 1178.48 1274.45 1179.87 1276.43 1176.24 1278.73 1172.05 1281.28 1158.41 1282.55 1154.22 1283.06 1152.55 1283.47 1151.5 1284.08 1151.08 1285.61 1150.04 1289.18 1148.99 1291.73 1147.95 1294.29 1146.9 1296.84 1145.85 1299.39 1144.81 1301.94 1143.76 1304.49 1142.72 1307.04 1141.67 1309.59 1140.63 1312.14 1139.58 1314.69 1138.53 1316.89 1137.63 1320.35 1139.02 1322.34 1135.4 1324.64 1131.2 1327.19 1117.57 1328.46 1113.37 1328.97 1111.7 1329.38 1110.65 1329.99 1110.24 1331.52 1109.19 1335.09 1108.14 1337.64 1107.1 1340.19 1106.05 1342.74 1105.01 1345.29 1103.96 1347.84 1102.92 1350.4 1101.87 1352.95 1100.82 1355.5 1099.78 1358.05 1098.73 1360.6 1097.69 1363.15 1096.64 1365.7 1095.65 1368.25 1094.55 1370.8 1093.45 1373.35 1092.26 1375.9 1091.09 1378.45 1089.92 1381 1088.73 1383.55 1087.55 1386.1 1086.37 1388.65 1085.19 1391.2 1084.01 1393.75 1082.83 1396.3 1081.7 1398.85 1080.47 1401.4 1079.24 1403.95 1077.9 1406.51 1076.61 1409.06 1075.32 1411.61 1074.03 1414.16 1072.75 1416.71 1071.46 1419.26 1070.17 1421.81 1068.89 1424.36 1067.6 1426.91 1066.31 1429.46 1065.02 1432.01 1063.74 1434.56 1062.45 1437.11 1061.16 1439.66 1059.87 1442.21 1058.59 1444.76 1057.3 1447.31 1056.01 1449.86 1054.73 1452.41 1053.44 1454.96 1052.15 1457.51 1050.86 1460.06 1049.58 1462.61 1048.29 1465.17 1047 1467.72 1045.72 1470.27 1044.43 1472.82 1043.14 1475.37 1041.85 1477.92 1040.57 1480.47 1039.28 1483.02 1037.99 1485.57 1036.71 1488.12 1035.42 1490.67 1034.13 1493.22 1032.84 1495.77 1031.56 1498.32 1030.27 1500.87 1028.98 1503.42 1027.7 1505.97 1026.41 1508.52 1025.12 1511.07 1023.83 1513.62 1022.55 1516.17 1021.26 1518.72 1019.97 1521.28 1018.69 1523.83 1017.4 1526.38 1016.11 1528.93 1014.82 1531.48 1013.54 1534.03 1012.25 1536.58 1010.96 1539.13 1009.67 1541.68 1008.39 1544.23 1007.1 1546.78 1005.81 1549.33 1004.53 1551.88 1003.24 1554.43 1001.95 1556.98 1000.66 1559.53 999.377 1562.08 998.09 1564.63 996.803 1567.18 995.516 1569.73 994.229 1572.28 992.941 1574.84 991.654 1577.39 990.367 1579.94 989.08 1582.49 987.793 1585.04 986.506 1587.59 985.218 1590.14 983.931 1592.69 982.644 1595.24 981.357 1597.79 980.07 1600.34 978.782 1602.89 977.495 1605.44 976.208 1607.99 974.921 1610.54 973.634 1613.09 972.347 1615.64 971.059 1618.19 969.772 1620.74 968.485 1623.29 967.198 1625.84 965.91 1628.39 964.623 1630.94 963.336 1633.5 962.049 1636.05 960.762 1638.6 959.474 1641.15 958.188 1643.7 956.901 1646.25 955.613 1648.8 954.326 1651.35 953.039 1653.9 951.752 1656.45 950.464 1659 949.177 1661.55 947.89 1664.1 946.603 1666.65 945.316 1669.2 944.028 1671.75 942.741 1674.3 941.454 1676.85 940.167 1679.4 938.88 1681.95 937.593 1684.5 936.305 1687.05 935.018 1689.61 933.731 1692.16 932.444 1694.71 931.157 1697.26 929.87 1699.81 928.582 1702.36 927.295 1704.91 926.008 1707.46 924.721 1710.01 923.434 1712.56 922.147 1715.11 920.859 1717.66 919.572 1720.21 918.285 1722.76 916.998 1725.31 915.71 1727.86 914.423 1730.41 913.136 1732.96 911.849 1735.51 910.562 1738.06 909.275 1740.61 907.987 1743.16 906.701 1745.71 905.413 1748.27 904.126 1750.82 902.839 1753.37 901.552 1755.92 900.265 1758.47 898.978 1761.02 897.69 1763.57 896.403 1766.12 895.116 1768.67 893.829 1771.22 892.542 1773.77 891.255 1776.32 889.967 1778.87 888.68 1781.42 887.393 1783.97 886.106 1786.52 884.819 1789.07 883.532 1791.62 882.244 1794.17 880.957 1796.72 879.67 1799.27 878.383 1801.83 877.096 1804.38 875.809 1806.93 874.522 1809.48 873.234 1812.03 871.947 1814.58 870.66 1817.13 869.373 1819.68 868.086 1822.23 866.798 1824.78 865.511 1827.33 864.224 1829.88 862.937 1832.43 861.65 1834.98 860.363 1837.53 859.076 1840.08 857.788 1842.63 856.501 1845.18 855.214 1847.73 853.927 1850.28 852.64 1852.83 851.352 1855.38 850.065 1857.94 848.778 1860.49 847.491 1863.04 846.204 1865.59 844.917 1868.14 843.63 1870.69 842.342 1873.24 841.055 1875.79 839.768 1878.34 838.481 1880.89 837.194 1883.44 835.907 1885.99 834.619 1888.54 833.332 1891.09 832.045 1893.64 830.758 1896.19 829.471 1898.74 828.183 1901.29 826.897 1903.84 825.61 1906.39 824.322 1908.94 823.035 1911.49 821.748 1914.04 820.461 1916.6 819.173 1919.15 817.886 1921.7 816.599 1924.25 815.366 1926.8 814.025 1929.35 812.684 1931.9 811.25 1934.45 809.842 1937 808.434 1939.55 806.999 1942.1 805.578 1944.65 804.157 1947.2 802.735 1949.75 801.314 1952.3 799.893 1954.85 798.525 1957.4 797.05 1959.95 795.576 1962.5 793.993 1965.05 792.465 1967.6 790.936 1970.15 789.408 1972.71 787.879 1975.26 786.351 1977.81 784.822 1980.36 783.294 1982.91 781.765 1985.46 780.237 1988.01 778.708 1990.56 777.18 1993.11 775.651 1995.66 774.123 1998.21 772.594 2000.76 771.066 2003.31 769.537 2005.86 768.009 2008.41 766.48 2010.96 764.952 2013.51 763.423 2016.06 761.895 2018.61 760.366 2021.16 758.838 2023.71 757.309 2026.27 755.781 2028.82 754.252 2031.37 752.723 2033.92 751.195 2036.47 749.666 2039.02 748.138 2041.57 746.609 2044.12 745.081 2046.67 743.552 2049.22 742.024 2051.77 740.495 2054.32 738.967 2056.87 737.438 2059.42 735.91 2061.97 734.381 2064.52 732.853 2067.07 731.324 2069.62 729.796 2072.17 728.267 2074.72 726.739 2077.27 725.21 2079.82 723.682 2082.37 722.153 2084.92 720.625 2087.48 719.096 2090.03 717.568 2092.58 716.039 2095.13 714.511 2097.68 712.982 2100.23 711.454 2102.78 709.925 2105.33 708.396 2107.88 706.868 2110.43 705.34 2112.98 703.811 2115.53 702.282 2118.08 700.754 2120.63 699.225 2123.18 697.697 2125.73 696.168 2128.28 694.64 2130.83 693.111 2133.38 691.583 2135.93 690.054 2138.48 688.526 2141.03 686.997 2143.58 685.469 2146.14 683.94 2148.69 682.412 2151.24 680.883 2153.79 679.355 2156.34 677.826 2158.89 676.298 2161.44 674.769 2163.99 673.241 2166.54 671.712 2169.09 670.184 2171.64 668.655 2174.19 667.127 2176.74 665.598 2179.29 664.07 2181.84 662.541 2184.39 661.013 2186.94 659.484 2189.49 657.955 2192.04 656.427 2194.59 654.899 2197.14 653.37 2199.7 651.841 2202.25 650.313 2204.8 648.784 2207.35 647.256 2209.9 645.727 2212.45 644.199 2215 642.67 2217.55 641.142 2220.1 639.613 2222.65 638.085 2225.2 636.556 2227.75 635.028 2230.3 633.499 2232.85 631.971 2235.4 630.442 2237.95 628.914 2240.5 627.385 2243.05 625.857 2245.6 624.328 2248.15 622.8 2250.7 621.271 2253.25 619.742 2255.81 618.214 2258.36 616.685 2260.91 615.157 2263.46 613.629 2266.01 612.1 2268.56 610.571 2271.11 609.043 2273.66 607.514 2276.21 605.986 2278.76 604.458 2281.31 602.929 2283.86 601.4 2286.41 599.872 2288.96 598.343 2291.51 596.815 2294.06 595.287 2296.61 593.758 2299.16 592.229 2301.71 590.701 2304.26 589.172 2306.81 587.644 2309.36 586.115 2311.91 584.587 2314.47 583.058 2317.02 581.53 2319.57 580.001 2322.12 578.473 2324.67 576.944 2327.22 575.416 2329.77 573.887 2332.32 572.359 2334.87 570.83 2337.42 569.301 2339.97 567.773 2342.52 566.245 2345.07 564.716 2347.62 563.188 2350.17 561.659 2352.72 560.13 2355.27 558.602 2357.82 557.073 2360.37 555.545 2362.92 554.017 2365.47 552.488 2368.02 550.959 2370.58 549.431 2373.13 547.902 2375.68 546.374 2378.23 544.846 2380.78 543.317 2383.33 541.788 2385.88 540.26 2388.43 538.731 2390.98 537.203 2393.53 535.674 2396.08 534.146 2398.63 532.617 2401.18 531.089 2403.73 529.56 2406.28 528.032 2408.83 526.503 2411.38 524.974 2413.93 523.446 2416.48 521.918 2419.03 520.389 2421.58 518.86 2424.14 517.332 2426.69 515.803 2429.24 514.275 2431.79 512.747 2434.34 511.218 2436.89 509.689 2439.44 508.161 2441.99 506.632 2444.54 505.104 2447.09 503.576 2449.64 502.047 2452.19 500.518 2454.74 498.99 2457.29 497.461 2459.84 495.933 2462.39 494.405 2464.94 492.876 2467.49 491.347 2470.04 489.819 2472.59 488.29 2475.14 486.762 2477.69 485.233 2480.24 483.705 2482.8 482.23 2485.35 480.648 2487.9 479.065 2490.45 477.39 2493 475.74 2495.55 474.091 2498.1 472.415 2500.65 470.753 2503.2 469.09 2505.75 467.428 2508.3 465.765 2510.85 464.102 2513.4 462.493 2515.95 460.777 2518.5 459.061 2521.05 457.237 2523.6 455.468 2526.15 453.698 2528.7 451.928 2531.25 450.158 2533.8 448.388 2536.35 446.618 2538.91 444.849 2541.46 443.079 2544.01 441.309 2546.56 439.539 2549.11 437.769 2551.66 435.999 2554.21 434.229 2556.76 432.459 2559.31 430.69 2561.86 428.92 2564.41 427.15 2566.96 425.38 2569.51 423.61 2572.06 421.84 2574.61 420.07 2577.16 418.301 2579.71 416.531 2582.26 414.761 2584.81 412.991 2587.36 411.221 2589.91 409.451 2592.46 407.682 2595.01 405.912 2597.57 404.142 2600.12 402.372 2602.67 400.602 2605.22 398.832 2607.77 397.063 2610.32 395.293 2612.87 393.523 2615.42 391.753 2617.97 389.983 2620.52 388.213 2623.07 386.443 2625.62 384.673 2628.17 382.904 2630.72 381.134 2633.27 379.364 2635.82 377.594 2638.37 375.825 2640.92 374.054 2643.47 372.284 2646.02 370.515 2648.57 368.745 2651.12 366.975 2653.68 365.205 2656.23 363.435 2658.78 361.665 2661.33 359.896 2663.88 358.126 2666.43 356.356 2668.98 354.586 2671.53 352.816 2674.08 351.047 2676.63 349.277 2679.18 347.507 2681.73 345.737 2684.28 343.967 2686.83 342.197 2689.38 340.427 2691.93 338.658 2694.48 336.887 2697.03 335.118 2699.58 333.348 2702.13 331.578 2704.68 329.808 2707.23 328.039 2709.79 326.269 2712.34 324.499 2714.89 322.729 2717.44 320.959 2719.99 319.189 2722.54 317.419 2725.09 315.649 2727.64 313.88 2730.19 312.11 2732.74 310.34 2735.29 308.57 2737.84 306.8 2740.39 305.03 2742.94 303.261 2745.49 301.491 2748.04 299.721 2750.59 297.951 2753.14 296.181 2755.69 294.411 2758.24 292.641 2760.79 290.872 2763.34 289.102 2765.9 287.332 2768.45 285.562 2771 283.792 2773.55 282.022 2776.1 280.253 2778.65 278.483 2781.2 276.713 2783.75 274.943 2786.3 273.173 2788.85 271.403 2791.4 269.633 2793.95 267.863 2796.5 266.094 2799.05 264.324 2801.6 262.554 2804.15 260.784 2806.7 259.014 2809.25 257.244 2811.8 255.475 2814.35 253.705 2816.9 251.935 2819.45 250.165 2822.01 248.396 2824.56 246.625 2827.11 244.855 2829.66 243.086 2832.21 241.316 2834.76 239.546 2837.31 237.776 2839.86 236.006 2842.41 234.236 2844.96 232.467 2847.51 230.697 2850.06 228.927 2852.61 227.157 2855.16 225.387 2857.71 223.617 2860.26 221.847 2862.81 220.077 2865.36 218.308 2867.91 216.538 2870.46 214.768 2873.01 212.998 2875.56 211.229 2878.11 209.458 2880.67 207.689 2883.22 205.919 2885.77 204.149 2888.32 202.379 2890.87 200.61 2893.42 198.84 2895.97 197.069 2898.52 195.3 2901.07 193.53 2903.62 191.76 2906.17 189.99 2908.72 188.22 2911.27 186.451 2913.82 184.681 2916.37 182.911 2918.92 181.141 2921.47 179.371 2924.02 177.601 2926.57 175.832 2929.12 174.062 2931.67 172.292 2934.22 170.522 2936.78 168.752 2939.33 166.982 2941.88 165.212 2944.43 163.443 2946.98 161.673 2949.53 159.903 2952.08 158.133 2954.63 156.363 2957.18 154.593 2959.73 152.824 2962.28 151.054 2964.83 149.284 2967.38 147.514 2969.93 145.744 2972.48 143.974 2975.03 142.204 2977.58 140.434 2980.13 138.665 2982.68 136.895 2985.23 135.125 2987.78 133.355 2990.33 131.585 2992.89 129.815 2995.44 128.046 2997.99 126.276 3000.54 124.506 3003.09 122.736 3005.64 120.966 3008.19 119.196 3010.74 117.426 3013.29 115.657 3015.84 113.887 3018.39 112.117 3020.94 110.347 3023.49 108.577 3026.04 106.807 3028.59 105.038 3031.14 103.268 3033.69 101.498 3036.24 99.7279 3038.79 97.9578 3041.34 95.6516 3043.89 94.4184 3046.44 93.1849 3049 92.9435 3051.55 92.3269 3054.1 91.7099 3056.65 91.2542 3059.2 90.7181 3061.75 90.1816 3064.3 89.6451 3066.85 89.109 3069.4 88.5724 3071.95 88.0363 3074.5 87.5002" stroke="#5089BC" stroke-width="6.875" stroke-linecap="round" stroke-linejoin="round" stroke-miterlimit="10" fill="none"/></g><g clip-path="url(#clip7)"><text fill="#595959" font-family="Calibri,Calibri_MSFontService,sans-serif" font-weight="400" font-size="41" transform="matrix(1 0 0 1 147.881 2076)">1M</text></g><g clip-path="url(#clip8)"><text fill="#595959" font-family="Calibri,Calibri_MSFontService,sans-serif" font-weight="400" font-size="41" transform="matrix(1 0 0 1 147.881 1740)">6M</text></g><g clip-path="url(#clip9)"><text fill="#595959" font-family="Calibri,Calibri_MSFontService,sans-serif" font-weight="400" font-size="41" transform="matrix(1 0 0 1 126.981 1405)">11M</text></g><g clip-path="url(#clip10)"><text fill="#595959" font-family="Calibri,Calibri_MSFontService,sans-serif" font-weight="400" font-size="41" transform="matrix(1 0 0 1 126.981 1069)">16M</text></g><g clip-path="url(#clip11)"><text fill="#595959" font-family="Calibri,Calibri_MSFontService,sans-serif" font-weight="400" font-size="41" transform="matrix(1 0 0 1 126.981 733)">21M</text></g><g clip-path="url(#clip12)"><text fill="#595959" font-family="Calibri,Calibri_MSFontService,sans-serif" font-weight="400" font-size="41" transform="matrix(1 0 0 1 126.981 398)">26M</text></g><g clip-path="url(#clip13)"><text fill="#595959" font-family="Calibri,Calibri_MSFontService,sans-serif" font-weight="400" font-size="41" transform="matrix(1 0 0 1 126.981 62)">31M</text></g><g clip-path="url(#clip14)"><text fill="#595959" font-family="Calibri,Calibri_MSFontService,sans-serif" font-weight="400" font-size="41" transform="matrix(1 0 0 1 155.151 2130)">21-Nov-22</text></g><g clip-path="url(#clip15)"><text fill="#595959" font-family="Calibri,Calibri_MSFontService,sans-serif" font-weight="400" font-size="41" transform="matrix(1 0 0 1 428.808 2130)">21-May-23</text></g><g clip-path="url(#clip16)"><text fill="#595959" font-family="Calibri,Calibri_MSFontService,sans-serif" font-weight="400" font-size="41" transform="matrix(1 0 0 1 713.748 2130)">21-Nov-23</text></g><g clip-path="url(#clip17)"><text fill="#595959" font-family="Calibri,Calibri_MSFontService,sans-serif" font-weight="400" font-size="41" transform="matrix(1 0 0 1 988.935 2130)">21-May-24</text></g><g clip-path="url(#clip18)"><text fill="#595959" font-family="Calibri,Calibri_MSFontService,sans-serif" font-weight="400" font-size="41" transform="matrix(1 0 0 1 1273.88 2130)">21-Nov-24</text></g><g clip-path="url(#clip19)"><text fill="#595959" font-family="Calibri,Calibri_MSFontService,sans-serif" font-weight="400" font-size="41" transform="matrix(1 0 0 1 1547.53 2130)">21-May-25</text></g><g clip-path="url(#clip20)"><text fill="#595959" font-family="Calibri,Calibri_MSFontService,sans-serif" font-weight="400" font-size="41" transform="matrix(1 0 0 1 1832.47 2130)">21-Nov-25</text></g><g clip-path="url(#clip21)"><text fill="#595959" font-family="Calibri,Calibri_MSFontService,sans-serif" font-weight="400" font-size="41" transform="matrix(1 0 0 1 2106.13 2130)">21-May-26</text></g><g clip-path="url(#clip22)"><text fill="#595959" font-family="Calibri,Calibri_MSFontService,sans-serif" font-weight="400" font-size="41" transform="matrix(1 0 0 1 2391.07 2130)">21-Nov-26</text></g><g clip-path="url(#clip23)"><text fill="#595959" font-family="Calibri,Calibri_MSFontService,sans-serif" font-weight="400" font-size="41" transform="matrix(1 0 0 1 2664.73 2130)">21-May-27</text></g><g clip-path="url(#clip24)"><text fill="#595959" font-family="Calibri,Calibri_MSFontService,sans-serif" font-weight="400" font-size="41" transform="matrix(1 0 0 1 2949.67 2130)">21-Nov-27</text></g><g clip-path="url(#clip25)"><text fill="#595959" font-family="Calibri,Calibri_MSFontService,sans-serif" font-weight="700" font-size="46" transform="matrix(6.12323e-17 -1 1 6.12323e-17 101.292 1122)"># INDY</text></g><g clip-path="url(#clip26)"><text fill="#595959" font-family="Calibri,Calibri_MSFontService,sans-serif" font-weight="700" font-size="46" transform="matrix(1 0 0 1 1613.47 2199)">Date</text></g></g></svg>