<svg width="3124" height="2268" xmlns="http://www.w3.org/2000/svg" xmlns:xlink="http://www.w3.org/1999/xlink" xml:space="preserve" overflow="hidden"><defs><clipPath id="clip0"><rect x="0" y="0" width="3124" height="2268"/></clipPath><clipPath id="clip1"><rect x="0" y="0" width="3123" height="2268"/></clipPath><clipPath id="clip2"><rect x="0" y="0" width="3123" height="2268"/></clipPath><clipPath id="clip3"><rect x="0" y="0" width="3123" height="2268"/></clipPath><clipPath id="clip4"><rect x="0" y="0" width="3123" height="2268"/></clipPath><clipPath id="clip5"><rect x="0" y="0" width="3123" height="2268"/></clipPath><clipPath id="clip6"><rect x="0" y="0" width="3123" height="2268"/></clipPath><clipPath id="clip7"><rect x="0" y="0" width="3123" height="2268"/></clipPath><clipPath id="clip8"><rect x="0" y="0" width="3123" height="2268"/></clipPath><clipPath id="clip9"><rect x="0" y="0" width="3123" height="2268"/></clipPath><clipPath id="clip10"><rect x="0" y="0" width="3123" height="2268"/></clipPath><clipPath id="clip11"><rect x="0" y="0" width="3123" height="2268"/></clipPath><clipPath id="clip12"><rect x="0" y="0" width="3123" height="2268"/></clipPath><clipPath id="clip13"><rect x="0" y="0" width="3123" height="2268"/></clipPath><clipPath id="clip14"><rect x="0" y="0" width="3123" height="2268"/></clipPath><clipPath id="clip15"><rect x="0" y="0" width="3123" height="2268"/></clipPath><clipPath id="clip16"><rect x="0" y="0" width="3123" height="2268"/></clipPath><clipPath id="clip17"><rect x="0" y="0" width="3123" height="2268"/></clipPath><clipPath id="clip18"><rect x="0" y="0" width="3123" height="2268"/></clipPath><clipPath id="clip19"><rect x="0" y="0" width="3123" height="2268"/></clipPath><clipPath id="clip20"><rect x="0" y="0" width="3123" height="2268"/></clipPath><clipPath id="clip21"><rect x="0" y="0" width="3123" height="2268"/></clipPath></defs><g clip-path="url(#clip0)"><g clip-path="url(#clip1)"><path d="M1561.98 192.19C2082.24 192.19 2503.98 613.936 2503.98 1134.19 2503.98 1435.72 2359.63 1719.04 2115.68 1896.28L1561.98 1134.19Z" stroke="#FFFFFF" stroke-width="6.875" stroke-linejoin="round" stroke-miterlimit="10" fill="#C647DF" fill-rule="evenodd"/></g><g clip-path="url(#clip2)"><path d="M2115.68 1896.28C1871.73 2073.52 1557.67 2123.26 1270.89 2030.08L1561.98 1134.19Z" stroke="#FFFFFF" stroke-width="6.875" stroke-linejoin="round" stroke-miterlimit="10" fill="#653AD9" fill-rule="evenodd"/></g><g clip-path="url(#clip3)"><path d="M1270.89 2030.08C1176.88 1999.53 1088.26 1954.38 1008.29 1896.28L1561.98 1134.19Z" stroke="#FFFFFF" stroke-width="6.875" stroke-linejoin="round" stroke-miterlimit="10" fill="#C5C6C1" fill-rule="evenodd"/></g><g clip-path="url(#clip4)"><path d="M1008.29 1896.28C587.403 1590.48 494.099 1001.39 799.895 580.495L1561.98 1134.19Z" stroke="#FFFFFF" stroke-width="6.875" stroke-linejoin="round" stroke-miterlimit="10" fill="#DAC6D8" fill-rule="evenodd"/></g><g clip-path="url(#clip5)"><path d="M799.893 580.495C811.49 564.533 823.587 548.939 836.163 533.736L1561.98 1134.19Z" stroke="#FFFFFF" stroke-width="6.875" stroke-linejoin="round" stroke-miterlimit="10" fill="#4B3FD8" fill-rule="evenodd"/></g><g clip-path="url(#clip6)"><path d="M836.164 533.735C1001.96 333.322 1243.24 210.381 1502.84 194.049L1561.98 1134.19Z" stroke="#FFFFFF" stroke-width="6.875" stroke-linejoin="round" stroke-miterlimit="10" fill="#5B91BE" fill-rule="evenodd"/></g><g clip-path="url(#clip7)"><path d="M1502.84 194.048C1522.53 192.809 1542.25 192.189 1561.98 192.189L1561.98 1134.19Z" stroke="#FFFFFF" stroke-width="6.875" stroke-linejoin="round" stroke-miterlimit="10" fill="#DCDCD8" fill-rule="evenodd"/></g><g clip-path="url(#clip8)"><text fill="#404040" font-family="Calibri,Calibri_MSFontService,sans-serif" font-weight="700" font-size="55" transform="matrix(1 0 0 1 2000 256)">Stability Pool Rewards</text></g><g clip-path="url(#clip9)"><text fill="#404040" font-family="Calibri,Calibri_MSFontService,sans-serif" font-weight="700" font-size="55" transform="matrix(1 0 0 1 2206.15 324)">40%</text></g><g clip-path="url(#clip10)"><text fill="#404040" font-family="Calibri,Calibri_MSFontService,sans-serif" font-weight="700" font-size="55" transform="matrix(1 0 0 1 1697.82 2138)">iAsset Liquidity Staking</text></g><g clip-path="url(#clip11)"><text fill="#404040" font-family="Calibri,Calibri_MSFontService,sans-serif" font-weight="700" font-size="55" transform="matrix(1 0 0 1 1913.19 2206)">15%</text></g><g clip-path="url(#clip12)"><text fill="#404040" font-family="Calibri,Calibri_MSFontService,sans-serif" font-weight="700" font-size="55" transform="matrix(1 0 0 1 610.744 2080)">Governance Participation</text></g><g clip-path="url(#clip13)"><text fill="#404040" font-family="Calibri,Calibri_MSFontService,sans-serif" font-weight="700" font-size="55" transform="matrix(1 0 0 1 865.921 2148)">5%</text></g><g clip-path="url(#clip14)"><text fill="#404040" font-family="Calibri,Calibri_MSFontService,sans-serif" font-weight="700" font-size="55" transform="matrix(1 0 0 1 442.44 1344)">Team</text></g><g clip-path="url(#clip15)"><text fill="#404040" font-family="Calibri,Calibri_MSFontService,sans-serif" font-weight="700" font-size="55" transform="matrix(1 0 0 1 455.548 1412)">25%</text></g><g clip-path="url(#clip16)"><text fill="#404040" font-family="Calibri,Calibri_MSFontService,sans-serif" font-weight="700" font-size="55" transform="matrix(1 0 0 1 613.83 507)">Airdrop</text></g><g clip-path="url(#clip17)"><text fill="#404040" font-family="Calibri,Calibri_MSFontService,sans-serif" font-weight="700" font-size="55" transform="matrix(1 0 0 1 666.447 575)">1%</text></g><g clip-path="url(#clip18)"><text fill="#404040" font-family="Calibri,Calibri_MSFontService,sans-serif" font-weight="700" font-size="55" transform="matrix(1 0 0 1 816.481 190)">DAO Treasury</text></g><g clip-path="url(#clip19)"><text fill="#404040" font-family="Calibri,Calibri_MSFontService,sans-serif" font-weight="700" font-size="55" transform="matrix(1 0 0 1 924.098 258)">13%</text></g><g clip-path="url(#clip20)"><text fill="#404040" font-family="Calibri,Calibri_MSFontService,sans-serif" font-weight="700" font-size="55" transform="matrix(1 0 0 1 1253.59 80)">Protocol Owned Liquidity</text></g><g clip-path="url(#clip21)"><text fill="#404040" font-family="Calibri,Calibri_MSFontService,sans-serif" font-weight="700" font-size="55" transform="matrix(1 0 0 1 1509.02 148)">1%</text></g></g></svg>