<?xml version="1.0" encoding="UTF-8"?><svg id="a" xmlns="http://www.w3.org/2000/svg" viewBox="0 0 1090.24 317.14"><defs><style>.c{fill:#fff;}</style></defs><g id="b"><g><path class="c" d="M400.08,232.95c-.17,2.26-1.09,4.17-2.73,5.73-1.65,1.56-3.52,2.34-5.6,2.34-2.43,0-4.39-.78-5.86-2.34-1.48-1.56-2.21-3.47-2.21-5.73V66.79c0-2.25,.78-4.17,2.34-5.73,1.56-1.56,3.56-2.34,5.99-2.34,2.08,0,3.95,.78,5.6,2.34,1.65,1.56,2.47,3.48,2.47,5.73V232.95Z"/><path class="c" d="M507.64,104.81c11.46,0,20.62,2.3,27.48,6.9,6.86,4.6,11.81,10.85,14.85,18.75,3.04,7.9,4.56,16.63,4.56,26.17v76.57c0,2.08-.78,3.91-2.34,5.47s-3.39,2.34-5.47,2.34c-2.43,0-4.34-.78-5.73-2.34-1.39-1.56-2.08-3.39-2.08-5.47v-75.79c0-6.94-1.13-13.28-3.39-19.01-2.26-5.73-5.95-10.33-11.07-13.8-5.12-3.47-11.85-5.21-20.18-5.21-7.47,0-14.54,1.74-21.23,5.21-6.69,3.48-12.11,8.07-16.28,13.8-4.17,5.73-6.25,12.07-6.25,19.01v75.79c0,2.08-.78,3.91-2.34,5.47s-3.39,2.34-5.47,2.34c-2.43,0-4.34-.78-5.73-2.34-1.39-1.56-2.08-3.39-2.08-5.47V116.53c0-2.08,.74-3.91,2.21-5.47,1.47-1.56,3.34-2.34,5.6-2.34s4.12,.78,5.6,2.34c1.47,1.56,2.21,3.39,2.21,5.47v21.88l-5.99,9.38c.35-5.55,2.12-10.89,5.34-16.02,3.21-5.12,7.33-9.72,12.37-13.8,5.03-4.08,10.63-7.29,16.8-9.64,6.16-2.34,12.37-3.52,18.62-3.52Z"/><path class="c" d="M704.53,48.3c2.25,0,4.12,.74,5.6,2.21,1.47,1.48,2.21,3.35,2.21,5.6V233.21c0,2.08-.78,3.91-2.34,5.47-1.56,1.56-3.39,2.34-5.47,2.34-2.26,0-4.13-.78-5.6-2.34-1.48-1.56-2.21-3.39-2.21-5.47v-30.99l4.43-3.65c0,4.86-1.3,9.94-3.91,15.24-2.6,5.3-6.29,10.2-11.07,14.71-4.78,4.52-10.33,8.16-16.67,10.94-6.34,2.78-13.15,4.17-20.45,4.17-11.63,0-22.1-3.04-31.38-9.12-9.29-6.08-16.63-14.32-22.01-24.74-5.38-10.42-8.07-22.31-8.07-35.68s2.69-25.04,8.07-35.55c5.38-10.5,12.67-18.75,21.88-24.74,9.2-5.99,19.62-8.99,31.25-8.99,7.12,0,13.89,1.3,20.31,3.91,6.42,2.6,12.11,6.17,17.06,10.68,4.95,4.52,8.86,9.68,11.72,15.5,2.87,5.82,4.3,11.85,4.3,18.1l-5.47-3.91V56.11c0-2.08,.74-3.91,2.21-5.47,1.47-1.56,3.34-2.34,5.6-2.34Zm-54.17,180.75c9.38,0,17.58-2.38,24.61-7.16,7.03-4.77,12.59-11.28,16.67-19.53,4.08-8.24,6.12-17.67,6.12-28.26s-2.04-19.75-6.12-28c-4.08-8.24-9.68-14.76-16.8-19.53-7.12-4.77-15.28-7.16-24.48-7.16s-17.15,2.39-24.35,7.16c-7.21,4.78-12.85,11.29-16.93,19.53-4.08,8.25-6.12,17.58-6.12,28s2.04,19.79,6.12,28.13c4.08,8.33,9.72,14.89,16.93,19.66,7.2,4.78,15.32,7.16,24.35,7.16Z"/><path class="c" d="M760.52,88.15c-3.65,0-6.38-.82-8.2-2.47-1.82-1.65-2.73-4.04-2.73-7.16v-2.6c0-3.13,1-5.51,3-7.16,1.99-1.65,4.73-2.47,8.2-2.47,3.3,0,5.86,.83,7.68,2.47,1.82,1.65,2.73,4.04,2.73,7.16v2.6c0,3.12-.91,5.51-2.73,7.16-1.82,1.65-4.47,2.47-7.94,2.47Zm7.81,145.07c0,2.08-.78,3.91-2.34,5.47-1.56,1.56-3.39,2.34-5.47,2.34-2.26,0-4.13-.78-5.6-2.34-1.48-1.56-2.21-3.39-2.21-5.47V113.41c0-2.08,.74-3.91,2.21-5.47,1.47-1.56,3.34-2.34,5.6-2.34s4.12,.78,5.6,2.34c1.47,1.56,2.21,3.39,2.21,5.47v119.8Z"/><path class="c" d="M864.44,104.81c7.81,0,15.02,1.35,21.62,4.04,6.6,2.69,12.37,6.17,17.32,10.42,4.95,4.26,8.81,8.77,11.59,13.54,2.77,4.78,4.17,9.33,4.17,13.67l-4.43-6.25v-24.22c0-2.25,.74-4.17,2.21-5.73,1.47-1.56,3.34-2.34,5.6-2.34,2.43,0,4.34,.78,5.73,2.34,1.39,1.56,2.08,3.48,2.08,5.73v112.77c0,13.89-2.86,25.61-8.59,35.16-5.73,9.55-13.5,16.8-23.31,21.75-9.81,4.95-20.97,7.42-33.47,7.42-6.08,0-12.46-.78-19.14-2.34-6.69-1.56-12.42-3.56-17.19-5.99-4.78-2.43-7.42-4.95-7.94-7.55-1.39-1.56-2.04-3.08-1.95-4.56,.08-1.48,.82-2.73,2.21-3.78,1.73-1.22,3.56-1.35,5.47-.39,1.91,.95,4.77,2.21,8.59,3.78,1.73,.52,4.08,1.3,7.03,2.34,2.95,1.04,6.47,1.95,10.55,2.74,4.08,.78,8.38,1.17,12.89,1.17,15.63,0,27.74-4.47,36.33-13.41,8.59-8.94,12.89-20.71,12.89-35.29v-25l2.86,.78c-1.56,6.25-4.13,11.72-7.68,16.41-3.56,4.69-7.77,8.64-12.63,11.85-4.86,3.21-10.12,5.64-15.76,7.29-5.64,1.65-11.24,2.47-16.8,2.47-11.98,0-22.75-3.04-32.29-9.12-9.55-6.08-17.15-14.32-22.79-24.74-5.64-10.42-8.46-22.31-8.46-35.68s2.82-25.04,8.46-35.55c5.64-10.5,13.19-18.75,22.66-24.74,9.46-5.99,20.18-8.99,32.16-8.99Zm1.82,14.58c-9.55,0-18.1,2.39-25.65,7.16-7.55,4.78-13.46,11.29-17.71,19.53-4.26,8.25-6.38,17.58-6.38,28s2.12,19.79,6.38,28.13c4.25,8.33,10.16,14.89,17.71,19.66,7.55,4.78,16.1,7.16,25.65,7.16s18.06-2.34,25.52-7.03c7.46-4.69,13.37-11.15,17.71-19.4,4.34-8.25,6.51-17.75,6.51-28.52s-2.17-20.27-6.51-28.52c-4.34-8.24-10.25-14.67-17.71-19.27-7.47-4.6-15.98-6.9-25.52-6.9Z"/><path class="c" d="M1090.24,174.35c0,13.2-2.86,25.05-8.59,35.55-5.73,10.51-13.54,18.75-23.44,24.74s-21.19,8.99-33.86,8.99-23.48-3-33.47-8.99c-9.99-5.99-17.88-14.23-23.7-24.74-5.82-10.5-8.72-22.35-8.72-35.55s2.91-25.26,8.72-35.68c5.82-10.42,13.71-18.66,23.7-24.74,9.98-6.08,21.14-9.12,33.47-9.12s23.96,3.04,33.86,9.12c9.9,6.08,17.71,14.32,23.44,24.74,5.73,10.42,8.59,22.31,8.59,35.68Zm-15.63,0c0-10.59-2.17-20.01-6.51-28.26-4.34-8.24-10.29-14.76-17.84-19.53-7.55-4.77-16.19-7.16-25.91-7.16s-17.88,2.39-25.52,7.16c-7.64,4.78-13.67,11.29-18.1,19.53-4.43,8.25-6.64,17.67-6.64,28.26s2.21,19.97,6.64,28.13c4.43,8.16,10.46,14.63,18.1,19.4,7.64,4.78,16.15,7.16,25.52,7.16s18.36-2.38,25.91-7.16c7.55-4.77,13.5-11.24,17.84-19.4,4.34-8.16,6.51-17.54,6.51-28.13Z"/></g><path class="c" d="M160.26,0C71.75,0,0,70.99,0,158.57s71.75,158.57,160.26,158.57,160.26-70.99,160.26-158.57S248.77,0,160.26,0Zm.61,291.93c-74.6,0-135.07-59.84-135.07-133.65S86.27,24.63,160.87,24.63s134.97,59.74,135.07,133.47l-85.18-83.11v27.74c-13.41-11.7-31.02-18.81-50.3-18.81s-35.95,6.73-49.22,17.88v-26.76L25.92,158.28l85.31,83.24v-24.92c13.27,11.15,30.45,17.88,49.22,17.88s36.89-7.1,50.3-18.81v25.79l85.18-83.11c-.04,73.78-60.5,133.57-135.07,133.57ZM227.87,124.28l36.21,35.33-37.17,36.27c6.13-10.85,9.63-23.36,9.63-36.67,0-12.6-3.14-24.48-8.67-34.92Zm-16.52,34.58c0,27.84-22.81,50.41-50.95,50.41s-50.95-22.57-50.95-50.41,22.81-50.41,50.95-50.41,50.95,22.57,50.95,50.41Zm-118.52,34.86l-34.92-34.07,34-33.18c-4.83,9.89-7.54,20.99-7.54,32.72,0,12.45,3.06,24.19,8.46,34.53Z"/></g></svg>